<mxfile host="app.diagrams.net" modified="2022-07-06T19:11:44.068Z" agent="5.0 (X11; Linux x86_64) AppleWebKit/537.36 (KHTML, like Gecko) Chrome/103.0.0.0 Safari/537.36" etag="muOVqnTh33VhQqXYGo3c" version="20.0.4" type="github">
  <diagram id="M8rWL5KrIzYJ2QpB-OGu" name="Page-1">
    <mxGraphModel dx="1422" dy="676" grid="1" gridSize="10" guides="1" tooltips="1" connect="1" arrows="1" fold="1" page="1" pageScale="1" pageWidth="827" pageHeight="1169" math="0" shadow="0">
      <root>
        <mxCell id="0" />
        <mxCell id="1" parent="0" />
        <mxCell id="B2EOAu4slwdPnE7jMrff-10" value="" style="edgeStyle=orthogonalEdgeStyle;rounded=0;orthogonalLoop=1;jettySize=auto;html=1;" edge="1" parent="1" source="B2EOAu4slwdPnE7jMrff-1" target="B2EOAu4slwdPnE7jMrff-9">
          <mxGeometry relative="1" as="geometry" />
        </mxCell>
        <mxCell id="B2EOAu4slwdPnE7jMrff-1" value="C# program" style="rounded=1;whiteSpace=wrap;html=1;" vertex="1" parent="1">
          <mxGeometry x="120" y="110" width="120" height="60" as="geometry" />
        </mxCell>
        <mxCell id="B2EOAu4slwdPnE7jMrff-8" value="" style="edgeStyle=orthogonalEdgeStyle;rounded=0;orthogonalLoop=1;jettySize=auto;html=1;" edge="1" parent="1" source="B2EOAu4slwdPnE7jMrff-6" target="B2EOAu4slwdPnE7jMrff-1">
          <mxGeometry relative="1" as="geometry" />
        </mxCell>
        <mxCell id="B2EOAu4slwdPnE7jMrff-6" value="Database" style="rounded=1;whiteSpace=wrap;html=1;" vertex="1" parent="1">
          <mxGeometry x="120" y="20" width="120" height="60" as="geometry" />
        </mxCell>
        <mxCell id="B2EOAu4slwdPnE7jMrff-12" value="" style="edgeStyle=orthogonalEdgeStyle;rounded=0;orthogonalLoop=1;jettySize=auto;html=1;" edge="1" parent="1" source="B2EOAu4slwdPnE7jMrff-9" target="B2EOAu4slwdPnE7jMrff-11">
          <mxGeometry relative="1" as="geometry" />
        </mxCell>
        <mxCell id="B2EOAu4slwdPnE7jMrff-9" value="Rest api" style="rounded=1;whiteSpace=wrap;html=1;" vertex="1" parent="1">
          <mxGeometry x="120" y="220" width="120" height="60" as="geometry" />
        </mxCell>
        <mxCell id="B2EOAu4slwdPnE7jMrff-14" value="" style="edgeStyle=orthogonalEdgeStyle;rounded=0;orthogonalLoop=1;jettySize=auto;html=1;" edge="1" parent="1" source="B2EOAu4slwdPnE7jMrff-11" target="B2EOAu4slwdPnE7jMrff-13">
          <mxGeometry relative="1" as="geometry" />
        </mxCell>
        <mxCell id="B2EOAu4slwdPnE7jMrff-11" value="Front end (react)" style="rounded=1;whiteSpace=wrap;html=1;" vertex="1" parent="1">
          <mxGeometry x="300" y="220" width="120" height="60" as="geometry" />
        </mxCell>
        <mxCell id="B2EOAu4slwdPnE7jMrff-13" value="Chrome" style="rounded=1;whiteSpace=wrap;html=1;" vertex="1" parent="1">
          <mxGeometry x="460" y="220" width="120" height="60" as="geometry" />
        </mxCell>
      </root>
    </mxGraphModel>
  </diagram>
</mxfile>
